<svg xmlns="http://www.w3.org/2000/svg" viewBox="0 0 385.49 68.2" >
<path
  d="M54.68,23.81a16.13,16.13,0,0,1,1.11,6.28v23.7H46.21V32.09a7.88,7.88,0,0,0-1.52-4.94q-1.53-2-4.94-2a6.15,6.15,0,0,0-5,2.12A7.64,7.64,0,0,0,33,32.39v21.4h-9.8V32.09a7.72,7.72,0,0,0-1.56-4.94,5.9,5.9,0,0,0-4.91-2,6.31,6.31,0,0,0-5.05,2.08,7.61,7.61,0,0,0-1.78,5.13v21.4H0V17.24H9.44v4.45a8.56,8.56,0,0,1,1.93-2.37A10.62,10.62,0,0,1,14,17.61a15.66,15.66,0,0,1,3.05-1,13.44,13.44,0,0,1,3.08-.38,13.43,13.43,0,0,1,6.61,1.57A9.86,9.86,0,0,1,31,22.29,12.47,12.47,0,0,1,36,17.57a15,15,0,0,1,6.54-1.38,15.61,15.61,0,0,1,4.9.79,11.57,11.57,0,0,1,4.24,2.48A12.39,12.39,0,0,1,54.68,23.81ZM81.2,38.63,71.47,17.24H60.4L75.93,49.18l-8.62,19H77.78l23-51H90.19ZM129,41.83a7.55,7.55,0,0,1-1.68,2,8.27,8.27,0,0,1-2.48,1.45,9.22,9.22,0,0,1-3.31.56,9.69,9.69,0,0,1-3.6-.67,8.63,8.63,0,0,1-3-2,9.66,9.66,0,0,1-2-3.27,12.23,12.23,0,0,1-.74-4.38,12.26,12.26,0,0,1,.74-4.38,9.44,9.44,0,0,1,2-3.23,8.28,8.28,0,0,1,2.93-2,9.58,9.58,0,0,1,3.61-.67A7.4,7.4,0,0,1,127,27.19a10,10,0,0,1,2.56,4.24l8.84-3a17.07,17.07,0,0,0-1.93-4.53A14.61,14.61,0,0,0,133,20a18.5,18.5,0,0,0-5.09-2.78,20.42,20.42,0,0,0-14.11.37,18.41,18.41,0,0,0-6,4,18.17,18.17,0,0,0-4,6.13,20.47,20.47,0,0,0-1.45,7.8,19.8,19.8,0,0,0,1.48,7.76,18.93,18.93,0,0,0,4.09,6.13A18.31,18.31,0,0,0,114,53.45a19.55,19.55,0,0,0,7.54,1.45,18.61,18.61,0,0,0,6.54-1.08,17.76,17.76,0,0,0,5-2.82,16,16,0,0,0,3.53-3.94,16.27,16.27,0,0,0,2-4.49l-8.7-2.9A9.59,9.59,0,0,1,129,41.83Zm50.66-14.12a20.47,20.47,0,0,1,1.45,7.8,20.16,20.16,0,0,1-1.45,7.76,18.57,18.57,0,0,1-4,6.13,18,18,0,0,1-6.09,4.05,20.72,20.72,0,0,1-15.23,0,18,18,0,0,1-6.09-4.05,18.75,18.75,0,0,1-4-6.13,20.34,20.34,0,0,1-1.44-7.76,20.66,20.66,0,0,1,1.44-7.8,18,18,0,0,1,10.11-10.14,20.72,20.72,0,0,1,15.23,0,18.45,18.45,0,0,1,6.09,4A18.17,18.17,0,0,1,179.67,27.71Zm-8.43,7.8a12.07,12.07,0,0,0-.78-4.53,9.81,9.81,0,0,0-2-3.23,8.48,8.48,0,0,0-3-2,9.45,9.45,0,0,0-7,0,8.3,8.3,0,0,0-3,2,9.81,9.81,0,0,0-2,3.23,12.07,12.07,0,0,0-.78,4.53,12,12,0,0,0,.78,4.53,9.81,9.81,0,0,0,2,3.23,8.18,8.18,0,0,0,3,2,9.45,9.45,0,0,0,7,0,8.35,8.35,0,0,0,3-2,9.81,9.81,0,0,0,2-3.23A12,12,0,0,0,171.24,35.51Zm86.14,6.32a7.51,7.51,0,0,1-1.67,2,8.33,8.33,0,0,1-2.49,1.45,9.19,9.19,0,0,1-3.31.56,9.76,9.76,0,0,1-3.6-.67,8.69,8.69,0,0,1-3-2,9.36,9.36,0,0,1-2-3.27,12,12,0,0,1-.75-4.38,12,12,0,0,1,.75-4.38,9.27,9.27,0,0,1,2-3.23,8.23,8.23,0,0,1,2.94-2,9.49,9.49,0,0,1,3.6-.67,7.38,7.38,0,0,1,5.53,1.93,10,10,0,0,1,2.57,4.24l8.84-3a17.4,17.4,0,0,0-1.93-4.53A15,15,0,0,0,261.36,20a18.65,18.65,0,0,0-5.09-2.78,20.44,20.44,0,0,0-14.12.37,18.51,18.51,0,0,0-6,4,18.32,18.32,0,0,0-4,6.13,20.66,20.66,0,0,0-1.45,7.8,19.8,19.8,0,0,0,1.49,7.76,18.91,18.91,0,0,0,4.08,6.13,18.41,18.41,0,0,0,6.13,4.05,19.62,19.62,0,0,0,7.54,1.45,18.61,18.61,0,0,0,6.54-1.08A17.62,17.62,0,0,0,261.5,51,15.79,15.79,0,0,0,265,47.06a16,16,0,0,0,2-4.49l-8.69-2.9A10.13,10.13,0,0,1,257.38,41.83Zm46.95-21.32a12,12,0,0,0-4.23-3.09A14.66,14.66,0,0,0,294,16.27a16.7,16.7,0,0,0-5.35.93,9.83,9.83,0,0,0-4.53,3.08V0h-9.88V53.79h9.88V32.32a8.09,8.09,0,0,1,1.93-5.09A6.2,6.2,0,0,1,291,25.18c2.37,0,4.09.7,5.16,2.08a8.34,8.34,0,0,1,1.6,5.2V53.79h9.88v-23a19.39,19.39,0,0,0-.82-5.65A12.47,12.47,0,0,0,304.33,20.51Zm-84.6,1.28a19.47,19.47,0,0,0-21.41-4.18,20.25,20.25,0,0,0-6.27,4.18A19.58,19.58,0,0,0,187.82,28a19.72,19.72,0,0,0,0,15.23,20.54,20.54,0,0,0,4.42,6.45c6.46,6.3,17.39,7,23.86,1.45l.45-.39-4.85-6.43-.48.29c-4.55,2.66-8.19,1.63-9.54,1.06a10.64,10.64,0,0,1-3.48-2.31A10.91,10.91,0,0,1,195,35.61a10.52,10.52,0,0,1,.84-4.19A11,11,0,0,1,198.2,28a10.64,10.64,0,0,1,3.48-2.31A10.79,10.79,0,0,1,213.54,28a10.82,10.82,0,0,1,2.32,3.44,10.52,10.52,0,0,1,.84,4.19V43c0,.24-.21,5.92,2.65,9a14.1,14.1,0,0,0,5.27,3.18l.83.27V35.61A19.15,19.15,0,0,0,223.92,28,19.8,19.8,0,0,0,219.73,21.79Zm123,.27a14.28,14.28,0,0,1,.65,4.39,13.71,13.71,0,0,1-.71,4.48,10.47,10.47,0,0,1-2,3.54,9.26,9.26,0,0,1-3.18,2.34,9.87,9.87,0,0,1-4.11.84,8.73,8.73,0,0,1-3.78-.75,6.13,6.13,0,0,1-2.36-1.84V45.35h-5.75V15.85h5.58v2.6a5.94,5.94,0,0,1,2.42-2.16,8.49,8.49,0,0,1,4.11-.91,9.77,9.77,0,0,1,4.15.84,9.05,9.05,0,0,1,3.1,2.34A10.16,10.16,0,0,1,342.76,22.06Zm-5,4.43a6,6,0,0,0-1.53-4.41,5.06,5.06,0,0,0-3.74-1.56,5.22,5.22,0,0,0-2.08.41,5.45,5.45,0,0,0-1.69,1.17A5.3,5.3,0,0,0,327.56,24a7.1,7.1,0,0,0-.42,2.53,7,7,0,0,0,.42,2.53,5.43,5.43,0,0,0,1.14,1.89,5.17,5.17,0,0,0,1.69,1.18,5.26,5.26,0,0,0,5.82-1.16A6.11,6.11,0,0,0,337.74,26.49Zm21.85-10.81a9.79,9.79,0,0,0-1.54.13,7.29,7.29,0,0,0-1.69.48,5.64,5.64,0,0,0-1.6,1A5.22,5.22,0,0,0,353.53,19V15.85H348V37.13h5.75V27.4a7.88,7.88,0,0,1,.46-2.87,4.93,4.93,0,0,1,1.19-1.84,4.28,4.28,0,0,1,1.73-1,7.29,7.29,0,0,1,2.12-.3,9.3,9.3,0,0,1,1.73.17V15.77l-.67-.07Zm25.9,10.81a11.81,11.81,0,0,1-.84,4.52,11,11,0,0,1-2.33,3.57,10.56,10.56,0,0,1-3.55,2.36,12.13,12.13,0,0,1-8.87,0,10.42,10.42,0,0,1-3.54-2.36A10.85,10.85,0,0,1,364,31a11.81,11.81,0,0,1-.84-4.52A12,12,0,0,1,364,22a10.49,10.49,0,0,1,5.88-5.9,12,12,0,0,1,8.87,0,10.41,10.41,0,0,1,5.88,5.9A12,12,0,0,1,385.49,26.49Zm-5.75,0a7.08,7.08,0,0,0-.45-2.64A5.76,5.76,0,0,0,378.1,22a4.92,4.92,0,0,0-1.73-1.14,5.5,5.5,0,0,0-4.07,0A4.92,4.92,0,0,0,370.57,22a5.93,5.93,0,0,0-1.19,1.88,7.08,7.08,0,0,0-.45,2.64,7.08,7.08,0,0,0,.45,2.64A5.82,5.82,0,0,0,370.57,31a4.81,4.81,0,0,0,1.73,1.15,5.5,5.5,0,0,0,4.07,0A4.81,4.81,0,0,0,378.1,31a5.66,5.66,0,0,0,1.19-1.88A7.08,7.08,0,0,0,379.74,26.49Z"
/>
</svg>