<svg xmlns="http://www.w3.org/2000/svg" viewBox="0 0 59.65 55.75"><path d="M59.65 9.83v41.09a4.84 4.84 0 0 1-4.84 4.83h-50A4.84 4.84 0 0 1 0 50.92V9.83A4.84 4.84 0 0 1 4.84 5h2.63a1.53 1.53 0 0 1 0 3H4.84a1.79 1.79 0 0 0-1.79 1.83v5.64h49.48a1.53 1.53 0 1 1 0 3H3.05v32.4a1.79 1.79 0 0 0 1.79 1.83h50a1.79 1.79 0 0 0 1.79-1.78V9.83A1.79 1.79 0 0 0 54.81 8H52a1.53 1.53 0 1 1 0-3h2.84a4.84 4.84 0 0 1 4.81 4.83M15.38 8h29.15a1.53 1.53 0 0 0 0-3H15.38a1.53 1.53 0 0 0 0 3m-3.89 4.52A1.53 1.53 0 0 0 13 11V1.52a1.52 1.52 0 1 0-3 0V11a1.53 1.53 0 0 0 1.49 1.56Zm36.89 0A1.54 1.54 0 0 0 49.91 11V1.52a1.53 1.53 0 0 0-3 0V11a1.53 1.53 0 0 0 1.47 1.56ZM38.13 44.29h1.06a1.19 1.19 0 0 0 1.19-1.19V26a1.19 1.19 0 0 0-1.19-1.19H37.9a1.2 1.2 0 0 0-.56.14l-3.42 1.83a1.18 1.18 0 0 0-.59 1.34l.14.55a1.18 1.18 0 0 0 1.71.75l1.1-.59a.45.45 0 0 1 .66.39V43.1a1.19 1.19 0 0 0 1.19 1.19m-16-2.72a7.6 7.6 0 0 1-2.54-.48 1.54 1.54 0 0 0-1.1 2.91 10.7 10.7 0 0 0 3.64.64c5 0 7.26-3 7.26-6.06a5.12 5.12 0 0 0-1.82-4 1.42 1.42 0 0 1-.07-2 4.68 4.68 0 0 0 1.18-3.15c0-2.45-1.8-4.92-5.81-4.92a10 10 0 0 0-3.79.77 1.49 1.49 0 0 0-.76 2 1.46 1.46 0 0 0 1.88.72 5.8 5.8 0 0 1 2.19-.47c1.74 0 2.74.84 2.74 2.29 0 1.92-2.17 2.62-3.63 2.62h-.45a1.45 1.45 0 0 0 0 2.9h.45c2.05 0 4.25.84 4.28 3.2a2.88 2.88 0 0 1-.8 2.08 3.87 3.87 0 0 1-2.88.95Z"/></svg>