<svg xmlns="http://www.w3.org/2000/svg" viewBox="0 0 52.92 53.78"><path d="M52.9 8.23a1.6 1.6 0 0 0-.8-1.36A51.07 51.07 0 0 0 12.33 2h-.05a1.5 1.5 0 0 0-.86.29A51 51 0 0 0 .82 6.87 1.62 1.62 0 0 0 0 8.23v.9a51.6 51.6 0 0 0 1.57 12.64 1.6 1.6 0 0 0 3.1-.77A48 48 0 0 1 3.2 9.2a47.6 47.6 0 0 1 7.48-3.32v29A48 48 0 0 1 7 27.93a1.6 1.6 0 1 0-2.94 1.25 51.77 51.77 0 0 0 21.6 24.39 1.63 1.63 0 0 0 1.6 0A51.51 51.51 0 0 0 52.92 9.13v-.58ZM26.46 50.32a48.4 48.4 0 0 1-12.58-11V4.89a47.8 47.8 0 0 1 24.82-.1V39.7a47.9 47.9 0 0 1-12.24 10.62m15.44-15V5.76a47 47 0 0 1 7.82 3.44 48.1 48.1 0 0 1-7.82 26.17ZM36.88 20a1.58 1.58 0 0 0-1.29-1.09l-5.32-.78-2.37-4.83a1.6 1.6 0 0 0-2.87 0l-2.38 4.82-5.32.78a1.6 1.6 0 0 0-.89 2.72l3.85 3.76-.91 5.29a1.6 1.6 0 0 0 2.32 1.69l4.76-2.5 4.76 2.5a1.59 1.59 0 0 0 1.68-.12 1.62 1.62 0 0 0 .64-1.57l-.91-5.29 3.85-3.76a1.59 1.59 0 0 0 .4-1.62m-7.08 3.67a1.6 1.6 0 0 0-.46 1.42l.5 2.93-2.63-1.38a1.57 1.57 0 0 0-1.49 0L23.08 28l.51-2.93a1.65 1.65 0 0 0-.46-1.42L21 21.6l2.94-.43a1.61 1.61 0 0 0 1.2-.88l1.32-2.67 1.32 2.67a1.61 1.61 0 0 0 1.2.88l2.95.43Z"/></svg>