<svg xmlns="http://www.w3.org/2000/svg" viewBox="0 0 47.73 47.73"><path d="M31.42 9.75H6.56A6.57 6.57 0 0 0 0 16.31v24.86a6.56 6.56 0 0 0 6.56 6.56h24.86A6.56 6.56 0 0 0 38 41.17V16.31a6.57 6.57 0 0 0-6.58-6.56M35 41.17a3.56 3.56 0 0 1-3.55 3.56H6.56A3.57 3.57 0 0 1 3 41.17V16.31a3.57 3.57 0 0 1 3.56-3.56h24.86A3.56 3.56 0 0 1 35 16.31Zm12.76-35v25.64a6.17 6.17 0 0 1-6.2 6.19 1.5 1.5 0 0 1 0-3 3.17 3.17 0 0 0 3.17-3.16V6.17A3.17 3.17 0 0 0 41.56 3H15.92a3.17 3.17 0 0 0-3.16 3.17v.13a1.5 1.5 0 0 1-3 0v-.13A6.17 6.17 0 0 1 15.92 0h25.64a6.18 6.18 0 0 1 6.17 6.17ZM7.31 28.4h9.19a1.5 1.5 0 0 0 1.5-1.5v-9.18a1.5 1.5 0 0 0-1.5-1.5H7.31a1.5 1.5 0 0 0-1.5 1.5v9.18a1.5 1.5 0 0 0 1.5 1.5m1.5-9.18H15v6.18H8.81ZM32.26 33a1.5 1.5 0 0 1-1.5 1.5H7.31a1.5 1.5 0 0 1 0-3h23.45a1.5 1.5 0 0 1 1.5 1.5m-5.76 5.1a1.5 1.5 0 0 1-1.5 1.5H7.31a1.5 1.5 0 0 1 0-3H25a1.5 1.5 0 0 1 1.5 1.5"/></svg>