<svg xmlns="http://www.w3.org/2000/svg" viewBox="0 0 59.99 59.99"><path d="M30 0a30 30 0 1 0 30 30A30 30 0 0 0 30 0m26.45 27.47-3.13-3.76 1-4.38a26.4 26.4 0 0 1 2.13 8.14M40.89 54.24l2.93-5.14 5.5-.86a26.7 26.7 0 0 1-8.43 6m.29-24.87 9.71-3.23 5.54 6.64a26.45 26.45 0 0 1-4 11.51l-8.96 1.41-4.79-6.33ZM9.1 26.13l9.71 3.24 2.5 10-4.74 6.33-9-1.42a26.45 26.45 0 0 1-4-11.51Zm31 0-8.4-6.71V9.69l9.5-3.79a26.6 26.6 0 0 1 10.67 9L50 22.83ZM24.5 38.05l-2.33-9.36L30 22.43l7.83 6.27-2.34 9.35Zm-.85-33.86a26.66 26.66 0 0 1 12.65 0L30 6.7Zm-4.9 1.73 9.54 3.78v9.72l-8.39 6.71-9.9-3.3-1.88-7.91a26.7 26.7 0 0 1 10.63-9M24 41.46h12l4.72 6.23-4.72 8.2a27 27 0 0 1-11.24.18l-5.39-8.44ZM6.68 23.71l-3.14 3.76a26.7 26.7 0 0 1 2.11-8.13Zm9.61 25.41 3.44 5.39a26.7 26.7 0 0 1-9-6.27Z"/></svg>