<svg xmlns="http://www.w3.org/2000/svg" viewBox="0 0 59.68 59.68"><path d="M27.55 8.17H9.77a1.5 1.5 0 0 0-1.5 1.5v25.45a1.5 1.5 0 0 0 1.5 1.5h17.78a1.5 1.5 0 0 0 1.5-1.5V9.67a1.5 1.5 0 0 0-1.5-1.5m-1.5 25.45H11.27V11.17h14.78Zm1.5 5.12H9.77a1.5 1.5 0 0 0-1.5 1.5v9.52a1.5 1.5 0 0 0 1.5 1.5h17.78a1.5 1.5 0 0 0 1.5-1.5v-9.52a1.5 1.5 0 0 0-1.5-1.5m-1.5 9.52H11.27v-6.52h14.78ZM49.78 8.17H32a1.5 1.5 0 0 0-1.5 1.5v11.71a1.5 1.5 0 0 0 1.5 1.5h17.78a1.5 1.5 0 0 0 1.5-1.5V9.67a1.5 1.5 0 0 0-1.5-1.5m-1.5 11.71H33.5v-8.71h14.78Zm1.5 4.82H32a1.5 1.5 0 0 0-1.5 1.5v23.56a1.5 1.5 0 0 0 1.5 1.5h17.78a1.5 1.5 0 0 0 1.5-1.5V26.2a1.5 1.5 0 0 0-1.5-1.5m-1.5 23.56H33.5V27.7h14.78Z"/></svg>