<svg xmlns="http://www.w3.org/2000/svg" viewBox="0 96 960 960"><path d="M109.912 906Q81 906 60.5 885.411t-20.5-49.5T60.494 786.5t49.273-20.5q5.233 0 10.233.5t13 2.5l200-200q-2-8-2.5-13t-.5-10.233q0-28.779 20.589-49.273t49.5-20.494 49.411 20.634 20.5 49.61Q470 548 467 569l110 110q8-2 13-2.5t10-.5 10 .5 13 2.5l160-160q-2-8-2.5-13t-.5-10.233q0-28.779 20.589-49.273t49.5-20.494 49.411 20.589 20.5 49.5-20.494 49.411-49.273 20.5Q845 566 840 565.5t-13-2.5L667 723q2 8 2.5 13t.5 10.233q0 28.779-20.589 49.273T599.911 816 550.5 795.506 530 746.233q0-5.233.5-10.233t2.5-13L423 613q-8 2-13 2.5t-10.25.5q-1.75 0-22.75-3L177 813q2 8 2.5 13t.5 10.233q0 28.779-20.589 49.273T109.912 906M160 464l-20.253-43.747L96 400l43.747-20.253L160 336l20.253 43.747L224 400l-43.747 20.253zm440-51-30.717-66.283L503 316l66.283-30.717L600 219l30.717 66.283L697 316l-66.283 30.717z"/></svg>