<svg xmlns="http://www.w3.org/2000/svg" viewBox="0 0 59.68 59.68"><path d="M57.35 16H42.79a.6.6 0 0 0 0-.14v-.45a5.15 5.15 0 0 0-5.15-5.14H23.8a5.14 5.14 0 0 0-5.14 5.14v.45a.6.6 0 0 0 0 .14H4.12a1.5 1.5 0 0 0-1.5 1.5v35.33a1.5 1.5 0 0 0 1.5 1.5h53.23a1.5 1.5 0 0 0 1.5-1.5V17.51a1.5 1.5 0 0 0-1.5-1.51m-35.69-.14v-.45a2.14 2.14 0 0 1 2.14-2.14h13.86a2.14 2.14 0 0 1 2.15 2.14V16H21.65s.01-.08.01-.13Zm34.19 35.47H5.62V19h50.23ZM7.42 48.38V21.89a1.5 1.5 0 0 1 3 0v26.49a1.5 1.5 0 0 1-3 0m43.67 0V21.89a1.5 1.5 0 0 1 3 0v26.49a1.5 1.5 0 0 1-3 0M21 40h4.46v4.46a1.5 1.5 0 0 0 1.5 1.5h7.65a1.5 1.5 0 0 0 1.5-1.5V40h4.45a1.5 1.5 0 0 0 1.5-1.5v-7.65a1.5 1.5 0 0 0-1.5-1.5h-4.5v-4.46a1.5 1.5 0 0 0-1.5-1.5h-7.65a1.5 1.5 0 0 0-1.5 1.5v4.46H21a1.5 1.5 0 0 0-1.5 1.5v7.64A1.5 1.5 0 0 0 21 40m1.5-7.64h4.46a1.5 1.5 0 0 0 1.5-1.5v-4.47h4.65v4.46a1.5 1.5 0 0 0 1.5 1.5H39V37h-4.44a1.5 1.5 0 0 0-1.5 1.5V43h-4.65v-4.51a1.5 1.5 0 0 0-1.5-1.5h-4.46Z"/></svg>