<svg xmlns="http://www.w3.org/2000/svg" viewBox="0 0 60.18 47.6"><path d="M55.08 0H5.1A5.11 5.11 0 0 0 0 5.1v32.48a5.1 5.1 0 0 0 5.1 5.1h50a5.1 5.1 0 0 0 5.1-5.1V5.1A5.11 5.11 0 0 0 55.08 0m2.1 37.58a2.1 2.1 0 0 1-2.1 2.1H5.1a2.1 2.1 0 0 1-2.1-2.1V5.1A2.1 2.1 0 0 1 5.1 3h50a2.1 2.1 0 0 1 2.1 2.1ZM43 46.1a1.5 1.5 0 0 1-1.5 1.5H18.7a1.5 1.5 0 1 1 0-3h22.77A1.5 1.5 0 0 1 43 46.1m-5.31-26-13.45-9.41a1.5 1.5 0 0 0-2.36 1.23v18.84a1.5 1.5 0 0 0 .81 1.33 1.4 1.4 0 0 0 .69.17 1.5 1.5 0 0 0 .86-.27l13.42-9.42a1.5 1.5 0 0 0 0-2.46Zm-12.81 7.78V14.81l9.31 6.53Z"/></svg>