<svg xmlns="http://www.w3.org/2000/svg" viewBox="0 0 42.81 48.81"><path d="M30.37 10.17a12.45 12.45 0 0 0-7.48 2.51c.25-2.32 1.61-6.1 7.65-7.37a1.5 1.5 0 1 0-.62-2.93 13.44 13.44 0 0 0-6.81 3.37 7.94 7.94 0 0 0-1.69-3.21A8.38 8.38 0 0 0 14.88 0a1.51 1.51 0 0 0-1.48 1.23 8.27 8.27 0 0 0 1.46 6 8.65 8.65 0 0 0 5.52 3.13 12.3 12.3 0 0 0-.46 2.35A12.43 12.43 0 0 0 0 22.59C-.15 36.3 19.81 47.9 20.66 48.39l.75.42.74-.42C23 47.9 43 36.3 42.81 22.6a12.45 12.45 0 0 0-12.44-12.43m-13.1-4.76a4.73 4.73 0 0 1-.91-2.29 4.7 4.7 0 0 1 2.81 1.41 5.25 5.25 0 0 1 1.2 2.73 5.4 5.4 0 0 1-3.1-1.85m4.14 39.92C17.86 43.13 2.89 33.21 3 22.6a9.45 9.45 0 0 1 9.44-9.43 9.3 9.3 0 0 1 5.92 2.09 9.6 9.6 0 0 1 1.82 1.94l.17.25a11.5 11.5 0 0 1 1.52 4.3A1.51 1.51 0 0 0 23.35 23h.27a1.52 1.52 0 0 0 1.21-1.75 15.6 15.6 0 0 0-1.59-4.77 10 10 0 0 1 1.21-1.2 9.45 9.45 0 0 1 15.36 7.37c.12 10.56-14.81 20.48-18.4 22.68m6.74-14a1.5 1.5 0 0 1-1.5 1.5h-3.74v3.66a1.5 1.5 0 0 1-3 0v-3.62h-3.75a1.5 1.5 0 0 1 0-3h3.75V26.2a1.5 1.5 0 0 1 3 0v3.67h3.74a1.5 1.5 0 0 1 1.5 1.5Z"></path></svg>