<svg xmlns="http://www.w3.org/2000/svg" viewBox="0 0 43.71 57.99"><path d="M42.21 6.47H29.38a7.61 7.61 0 0 0-15 0H1.5A1.5 1.5 0 0 0 0 8v48.49A1.5 1.5 0 0 0 1.5 58h40.71a1.5 1.5 0 0 0 1.5-1.5V8a1.5 1.5 0 0 0-1.5-1.53M40.71 55H3V9.47h3.41v4A1.5 1.5 0 0 0 7.91 15h28.87a1.5 1.5 0 0 0 0-3H9.41V9.47h6.35A1.48 1.48 0 0 0 16.85 9a1.44 1.44 0 0 0 .41-1.11v-.28a4.61 4.61 0 1 1 9.22 0s0 .1 0 .15v.13A1.48 1.48 0 0 0 26.86 9a1.5 1.5 0 0 0 1.14.47h12.71Zm-5.77-27.65a1.49 1.49 0 0 1 0 2.12l-13.3 13.29a1.46 1.46 0 0 1-1.06.44 1.47 1.47 0 0 1-1.06-.44l-7.2-7.2a1.51 1.51 0 0 1 0-2.12 1.49 1.49 0 0 1 2.12 0l6.14 6.14 12.24-12.23a1.49 1.49 0 0 1 2.12 0"/></svg>