<svg xmlns="http://www.w3.org/2000/svg" viewBox="0 0 59.18 55.8"><path d="M37.77 26.4a1.26 1.26 0 0 0-1-.85L32.58 25l-1.86-3.79a1.26 1.26 0 0 0-1.13-.69 1.25 1.25 0 0 0-1.12.69L26.6 25l-4.17.6a1.26 1.26 0 0 0-.7 2.14l3 2.94-.73 4.11a1.26 1.26 0 0 0 1.82 1.32l3.73-2 3.73 2a1.25 1.25 0 0 0 .59.14 1.2 1.2 0 0 0 .73-.24 1.24 1.24 0 0 0 .5-1.22l-.71-4.16 3-2.94a1.28 1.28 0 0 0 .38-1.29m-5.56 2.9a1.24 1.24 0 0 0-.36 1.11l.39 2.3-2.06-1.09a1.27 1.27 0 0 0-1.17 0l-2.07 1.09.4-2.3A1.27 1.27 0 0 0 27 29.3l-1.67-1.63 2.3-.34a1.25 1.25 0 0 0 .95-.68l1-2.1 1 2.1a1.27 1.27 0 0 0 .95.68l2.31.34ZM59 23.71 51.06 7.87a4 4 0 0 0-2.17-1.93l-7.06-2.57L37.88 2a17.76 17.76 0 0 0-8.29-2 17.8 17.8 0 0 0-8.29 2c-.18.05-.8.28-4 1.43l-7 2.56a4 4 0 0 0-2.17 1.88L.21 23.71a2 2 0 0 0 .73 2.55l7.18 4.34a2 2 0 0 0 2.54-.45l3.17-3.94-.06 16.64a1 1 0 0 0 1 1 1 1 0 0 0 1-1l.06-18.47a1.6 1.6 0 0 0 0-.31v-5.8a12.5 12.5 0 0 0-1.1-4.82l6.7-2.81a19.13 19.13 0 0 0 6.83 7 2.57 2.57 0 0 0 2.57 0 19.1 19.1 0 0 0 6.82-7l6.71 2.81a12.3 12.3 0 0 0-1.11 4.82v5.8a1.5 1.5 0 0 0 0 .3l.1 26.85H15.81v-2.91a1 1 0 0 0-1-1 1 1 0 0 0-1 1v5.54a2 2 0 0 0 1.95 1.95h27.75a2 2 0 0 0 2-2l-.1-27.63 3.17 3.95a2 2 0 0 0 2.54.44l7.17-4.34a2 2 0 0 0 .71-2.51"/></svg>