<svg xmlns="http://www.w3.org/2000/svg" viewBox="0 0 51.01 43.76"><path d="M49.8 19.18a5.49 5.49 0 0 0-4-7.35 11.39 11.39 0 0 0-11.13-9.32h-.4a5.46 5.46 0 0 0-8.35-1 9.15 9.15 0 0 0-5-1.49 9.34 9.34 0 0 0-7.32 3.59A6.71 6.71 0 0 0 5 9.64a5.45 5.45 0 0 0-3.33 5.06 5 5 0 0 0 .13 1.11 10.8 10.8 0 0 0-1.8 6 11 11 0 0 0 10.91 10.93 11.2 11.2 0 0 0 2.58-.31 8.39 8.39 0 0 0 13.16 2.21 12.4 12.4 0 0 0 2.83.55c.66 2.44 2.49 3.92 6.45 5.25a6 6 0 0 1 2.74 1.8 4.24 4.24 0 0 0 3.23 1.52 4 4 0 0 0 1.59-.32A4.12 4.12 0 0 0 46 39.65a3.9 3.9 0 0 0-.21-1.26 14.3 14.3 0 0 0-1.19-2.75 11.27 11.27 0 0 0 4.47-6.8 8.3 8.3 0 0 0 .73-9.66"/></svg>