<svg xmlns="http://www.w3.org/2000/svg" viewBox="0 0 24 24"><path d="M11 11.791q-1.444 0-2.472-1.028T7.5 8.291 8.528 5.82 11 4.791t2.472 1.028T14.5 8.291t-1.028 2.472Q12.443 11.791 11 11.791m0-1.5q.825 0 1.412-.587Q13 9.116 13 8.29q0-.824-.588-1.412A1.93 1.93 0 0 0 11 6.29q-.825 0-1.412.588A1.93 1.93 0 0 0 9 8.29q0 .825.588 1.413.587.587 1.412.587m10.658 12.52-2.931-2.931q-.506.319-1.067.5-.562.18-1.158.18-1.655 0-2.81-1.156-1.153-1.155-1.153-2.807t1.156-2.806q1.155-1.154 2.807-1.154t2.806 1.156q1.154 1.156 1.154 2.806 0 .598-.181 1.16-.18.561-.5 1.067l2.93 2.93zM16.5 19.06q1.04 0 1.751-.711t.71-1.751-.71-1.751-1.751-.71q-1.04 0-1.75.71-.712.71-.711 1.75 0 1.042.71 1.752t1.751.71m-13 .346v-2.208q0-.744.391-1.368a2.66 2.66 0 0 1 1.074-.97q1.179-.593 2.842-1.053 1.662-.46 3.641-.382a5.5 5.5 0 0 0-.387.729 4.6 4.6 0 0 0-.26.777q-1.646.019-2.993.435-1.348.417-2.139.832a1.2 1.2 0 0 0-.493.422 1.03 1.03 0 0 0-.176.578v.708h5.685a5 5 0 0 0 .59 1.5z"/></svg>