<svg xmlns="http://www.w3.org/2000/svg" viewBox="0 0 41.18 42.24"><path d="M4.25 7.31 2.56 9A1.5 1.5 0 0 1 .44 9a1.49 1.49 0 0 1 0-2.12l1.69-1.69L.44 3.5a1.5 1.5 0 0 1 2.12-2.13l1.69 1.69 1.69-1.69A1.5 1.5 0 0 1 8.06 3.5L6.37 5.19l1.69 1.69A1.5 1.5 0 0 1 7 9.44 1.5 1.5 0 0 1 5.94 9ZM15.27 9a1.5 1.5 0 0 0 1.06.44A1.5 1.5 0 0 0 17.39 9l1.69-1.69L20.77 9a1.5 1.5 0 0 0 2.12 0 1.49 1.49 0 0 0 0-2.12L21.2 5.19l1.69-1.69a1.5 1.5 0 0 0-2.12-2.13l-1.69 1.69-1.69-1.69a1.5 1.5 0 1 0-2.12 2.13L17 5.19l-1.73 1.69a1.49 1.49 0 0 0 0 2.12m24.45 24.82a1.51 1.51 0 0 0-2.12 0l-1.69 1.69-1.69-1.69a1.51 1.51 0 0 0-2.12 0 1.49 1.49 0 0 0 0 2.12l1.69 1.7-1.69 1.69a1.5 1.5 0 0 0 1.06 2.56 1.53 1.53 0 0 0 1.06-.44l1.69-1.69 1.69 1.69a1.5 1.5 0 0 0 2.12 0 1.49 1.49 0 0 0 0-2.12L38 37.64l1.69-1.7a1.49 1.49 0 0 0 .03-2.12M13.8 23.28a5.28 5.28 0 1 1 5.28 5.27 5.29 5.29 0 0 1-5.28-5.27m3 0A2.28 2.28 0 1 0 19.08 21a2.28 2.28 0 0 0-2.28 2.28m24.38 0A5.28 5.28 0 1 1 35.91 18a5.27 5.27 0 0 1 5.27 5.28m-3 0a2.28 2.28 0 1 0-2.27 2.27 2.28 2.28 0 0 0 2.27-2.27m-7.55-18a5.28 5.28 0 1 1 5.28 5.27 5.29 5.29 0 0 1-5.28-5.27m3 0A2.28 2.28 0 1 0 35.91 3a2.28 2.28 0 0 0-2.28 2.28m-9.56 27.6a1.5 1.5 0 1 0-2.72 1.26l.81 1.76C3.62 31.71 5.64 16.61 5.73 16a1.5 1.5 0 0 0-3-.46c-1 6.43 1.65 19.26 18.29 23.24l-1.31.67a1.51 1.51 0 0 0 .69 2.84 1.56 1.56 0 0 0 .69-.17l4.53-2.34a1.49 1.49 0 0 0 .67-2Z"/></svg>