<svg xmlns="http://www.w3.org/2000/svg" viewBox="0 0 45.11 45.11"><path d="M24 45.11h-2.86A4.17 4.17 0 0 1 17 41v-1a19 19 0 0 1-2.82-1.18l-.68.68a4.14 4.14 0 0 1-5.87 0l-2-2a4.15 4.15 0 0 1 0-5.87l.65-.63a18.3 18.3 0 0 1-1.17-2.83h-1A4.15 4.15 0 0 1 0 24v-2.86A4.15 4.15 0 0 1 4.15 17h1a18 18 0 0 1 1.17-2.83l-.68-.68a4.15 4.15 0 0 1 0-5.87l2-2a4.14 4.14 0 0 1 5.87 0l.68.67A18 18 0 0 1 17 5.11v-1A4.15 4.15 0 0 1 21.14 0H24a4.15 4.15 0 0 1 4.15 4.15v1A18.3 18.3 0 0 1 31 6.28l.68-.68a4.15 4.15 0 0 1 5.87 0l2 2a4.14 4.14 0 0 1 0 5.87l-.68.68A19 19 0 0 1 40 17h1a4.16 4.16 0 0 1 4.16 4.15V24A4.16 4.16 0 0 1 41 28.12h-1A19.4 19.4 0 0 1 38.82 31l.68.68a4.15 4.15 0 0 1 0 5.87l-2 2a4.15 4.15 0 0 1-5.87 0l-.63-.73A19.4 19.4 0 0 1 28.12 40v1A4.16 4.16 0 0 1 24 45.11m-9.4-9.06a15.5 15.5 0 0 0 4 1.67 1.33 1.33 0 0 1 1 1.28v2a1.51 1.51 0 0 0 1.51 1.51H24A1.51 1.51 0 0 0 25.48 41v-2a1.33 1.33 0 0 1 1-1.28 15.7 15.7 0 0 0 4-1.67 1.3 1.3 0 0 1 1.6.2l1.39 1.38a1.5 1.5 0 0 0 2.13 0l2-2a1.5 1.5 0 0 0 0-2.13l-1.38-1.39a1.3 1.3 0 0 1-.2-1.6 15.7 15.7 0 0 0 1.67-4 1.33 1.33 0 0 1 1.28-1h2A1.51 1.51 0 0 0 42.46 24v-2.86A1.51 1.51 0 0 0 41 19.63h-2a1.33 1.33 0 0 1-1.28-1 15.5 15.5 0 0 0-1.67-4 1.32 1.32 0 0 1 .2-1.61l1.38-1.38a1.5 1.5 0 0 0 0-2.13l-2-2a1.51 1.51 0 0 0-2.13 0l-1.39 1.35a1.31 1.31 0 0 1-1.6.2 15.7 15.7 0 0 0-4-1.68 1.32 1.32 0 0 1-1-1.28V4.15A1.52 1.52 0 0 0 24 2.64h-2.86a1.52 1.52 0 0 0-1.51 1.51V6.1a1.32 1.32 0 0 1-1 1.28 15.6 15.6 0 0 0-4 1.68 1.33 1.33 0 0 1-1.63-.2l-1.39-1.39a1.51 1.51 0 0 0-2.13 0l-2 2a1.5 1.5 0 0 0 0 2.13L8.86 13a1.33 1.33 0 0 1 .2 1.61 15.6 15.6 0 0 0-1.68 4 1.32 1.32 0 0 1-1.28 1H4.15a1.52 1.52 0 0 0-1.51 1.51V24a1.52 1.52 0 0 0 1.51 1.51H6.1a1.32 1.32 0 0 1 1.28 1 15.7 15.7 0 0 0 1.68 4 1.31 1.31 0 0 1-.2 1.6L7.47 33.5a1.51 1.51 0 0 0 0 2.13l2 2a1.5 1.5 0 0 0 2.13 0l1.4-1.38a1.34 1.34 0 0 1 1.61-.2Zm8-3.68a9.82 9.82 0 1 1 9.82-9.82 9.83 9.83 0 0 1-9.87 9.82Zm0-17a7.17 7.17 0 1 0 7.17 7.17 7.18 7.18 0 0 0-7.17-7.17"/></svg>